<?xml version="1.0" encoding="UTF-8" standalone="no"?>
<svg
   version="1.1"
   width="720pt"
   height="1008pt"
   id="svg35"
   viewBox="0 0 720 1008"
   sodipodi:docname="acnc kitchen logo.cdr"
   xmlns:inkscape="http://www.inkscape.org/namespaces/inkscape"
   xmlns:sodipodi="http://sodipodi.sourceforge.net/DTD/sodipodi-0.dtd"
   xmlns="http://www.w3.org/2000/svg"
   xmlns:svg="http://www.w3.org/2000/svg">
  <defs
     id="defs39" />
  <sodipodi:namedview
     id="namedview37"
     pagecolor="#ffffff"
     bordercolor="#000000"
     borderopacity="0.25"
     inkscape:showpageshadow="2"
     inkscape:pageopacity="0.0"
     inkscape:pagecheckerboard="0"
     inkscape:deskcolor="#d1d1d1"
     inkscape:document-units="pt" />
  <path
     d="M 0,160.8432 V 847.1568 H 720 V 160.8432 Z"
     style="fill:#000200;fill-rule:evenodd"
     id="path2" />
  <path
     d="m 193.7642,408.9281 0.1955,7.2932 h 142.8194 c 2.8309,0 1.9619,-4.4338 0,-6.2835 3.7842,2.4582 7.7924,3.3341 11.8689,3.1677 -3.909,-6.6596 -5.4652,-12.7454 -3.9802,-18.0921 15.9752,10.3868 24.3585,3.8748 29.0078,-16.8864 6.7086,2.7318 2.412,14.635 3.6184,22.6758 4.8247,-1.5077 9.8421,1.5209 14.4737,-3.0759 2.2377,6.1422 -0.8462,11.1932 -6.3326,17.8511 5.2732,-0.4952 10.2148,-1.2542 14.4737,-6.9958 0.0815,3.2805 -0.9026,7.6397 2.1112,7.6397 h 144.5808 l -1.9546,-7.2933 h -116.716 c 5.9633,-11.6302 7.0727,-21.5663 -0.7584,-28.3815 -1.1015,8.8694 -5.6248,12.8508 -12.7352,13.1369 4.3045,-21.5681 0.4605,-39.0853 -9.1303,-41.3156 2.1283,12.5141 -3.3586,19.3155 -14.9615,21.5293 1.236,-23.8109 -6.5878,-43.1777 -28.0972,-55.8302 7.805,52.1748 -12.4941,62.9155 -20.7999,53.2757 -5.5889,-7.0676 -4.6732,-16.2009 -2.9193,-24.8133 -13.795,10.3345 -20.7247,25.9917 -20.8421,47.0025 -5.9291,-2.6509 -9.9224,-7.56 -12.4069,-14.2315 -2.9785,8.6226 -3.4936,17.8453 -0.1527,29.6272 z"
     style="fill:#ffcb00;fill-rule:evenodd;stroke:#1b1918;stroke-width:2.0725;stroke-linecap:butt;stroke-linejoin:miter;stroke-dasharray:none"
     id="path4" />
  <path
     d="m 370.1827,291.5371 c 57.2915,0 109.1602,23.223 146.7042,60.7682 36.8516,36.8505 59.9033,87.5021 60.742,143.5358 h -16.0843 c -0.8379,-51.5939 -22.087,-98.2256 -56.0282,-132.1653 -34.6333,-34.6347 -82.4818,-56.0569 -135.3337,-56.0569 -52.851,0 -100.6994,21.4222 -135.3339,56.0569 -33.9409,33.9397 -55.1903,80.5714 -56.0279,132.1653 h -16.0846 c 0.839,-56.0337 23.8906,-106.6853 60.7423,-143.5358 37.5446,-37.5452 89.4136,-60.7682 146.7041,-60.7682 z"
     style="fill:#ffffff;fill-rule:evenodd;stroke:#1b1918;stroke-width:2.0723;stroke-linecap:butt;stroke-linejoin:miter;stroke-dasharray:none"
     id="path6" />
  <path
     d="m 370.5523,254.4242 c 67.5399,0 128.6864,27.3767 172.9476,71.6378 43.568,43.5681 70.7762,103.4966 71.6178,169.779 H 599.0332 C 598.1928,433.9985 572.7865,378.0896 532.1294,337.4325 490.7792,296.0823 433.6523,270.506 370.5523,270.506 c -63.0995,0 -120.2268,25.5763 -161.577,66.9265 -40.6571,40.6571 -66.0634,96.5652 -66.9039,158.4085 H 125.987 c 0.8416,-66.2824 28.0498,-126.2109 71.6178,-169.779 44.2612,-44.2611 105.4085,-71.6378 172.9475,-71.6378 z m 219.6133,352.368 c -11.9277,24.2581 -27.7541,46.2534 -46.6657,65.165 -44.2612,44.2612 -105.4077,71.6378 -172.9476,71.6378 -67.539,0 -128.6863,-27.3766 -172.9475,-71.6378 -18.9116,-18.9116 -34.738,-40.9069 -46.6658,-65.165 h 18.0798 c 10.6484,19.8723 24.1489,37.9869 39.9565,53.7945 41.3502,41.3503 98.4775,66.9266 161.577,66.9266 63.1,0 120.2269,-25.5763 161.5771,-66.9266 15.8076,-15.8076 29.3077,-33.9222 39.956,-53.7945 z"
     style="fill:#c00415;fill-rule:evenodd;stroke:#1b1918;stroke-width:2.0725;stroke-linecap:butt;stroke-linejoin:miter;stroke-dasharray:none"
     id="path8" />
  <path
     d="m 234.0366,560.7396 c -1.014,4.7331 -3.7745,8.7048 -8.2815,11.9164 -4.507,3.155 -9.6058,4.7331 -15.2963,4.7331 h -67.8623 c -2.5355,0 -4.8311,-0.3242 -6.8879,-0.9725 -2.0557,-0.6483 -3.8022,-1.5492 -5.2395,-2.7039 -1.4362,-1.1559 -2.5356,-2.5356 -3.2958,-4.1414 -0.7602,-1.6057 -1.1409,-3.3949 -1.1409,-5.3664 0,-1.2401 0.1131,-2.3948 0.338,-3.4653 1.014,-4.845 3.6903,-8.8456 8.0289,-12.0006 4.4504,-3.155 9.5492,-4.732 15.2963,-4.732 h 65.1571 l -3.0419,14.4508 h -65.1572 c -1.803,0 -2.8735,0.7614 -3.2115,2.2818 -0.0565,0.113 -0.0854,0.3103 -0.0854,0.5918 0,1.0705 0.7614,1.6057 2.2818,1.6057 h 67.9465 c 1.803,0 2.8458,-0.7325 3.1273,-2.1975 l 4.0571,-18.9301 c 0.0554,-0.225 0.0842,-0.5353 0.0842,-0.9298 0,-0.9009 -0.7614,-1.352 -2.2818,-1.352 h -88.2296 l 3.1273,-14.4508 h 88.1443 c 2.5355,0 4.8312,0.323 6.888,0.9713 2.0556,0.6483 3.831,1.5493 5.3237,2.704 1.4927,1.1559 2.6336,2.5494 3.4226,4.184 0.7891,1.6335 1.1836,3.4642 1.1836,5.4933 0,1.1824 -0.113,2.3095 -0.338,3.38 z m 120.9345,16.6495 h -88.1443 c -5.296,0 -9.4373,-1.1409 -12.4228,-3.4238 -2.9866,-2.2818 -4.4793,-5.4506 -4.4793,-9.5066 0,-1.0705 0.1408,-2.3106 0.4222,-3.7191 l 3.9729,-18.9301 c 1.1259,-5.2961 3.7595,-9.4085 7.9008,-12.3386 4.1413,-2.9301 9.367,-4.394 15.6771,-4.394 H 366.042 L 363,539.5277 h -88.1443 c -1.803,0 -2.8736,0.7602 -3.2116,2.2818 l -3.9717,18.9301 c -0.1696,0.676 -0.2538,1.127 -0.2538,1.352 0,0.5641 0.8167,0.8455 2.4502,0.8455 h 88.1443 z m 124.8221,-7.1845 c -0.2261,1.0706 -0.6483,2.0569 -1.2677,2.959 -0.6195,0.9009 -1.3809,1.6899 -2.2818,2.3659 -0.9021,0.676 -1.9299,1.1974 -3.0847,1.5631 -1.1547,0.3669 -2.3521,0.5491 -3.5922,0.5491 -1.5204,0 -2.8447,-0.2814 -3.9717,-0.8444 l -71.0726,-32.7903 -7.0991,33.3821 h -17.3243 l 9.5492,-45.0447 c 0.5064,-2.479 1.8873,-4.3386 4.1402,-5.5775 2.0291,-1.1836 4.5081,-1.7753 7.4371,-1.7753 2.5355,0 4.7054,0.4233 6.5072,1.2677 l 67.2705,32.1143 7.0991,-33.2967 h 17.3243 z m 123.469,7.1845 h -88.1443 c -5.2961,0 -9.4362,-1.1409 -12.4228,-3.4238 -2.9855,-2.2818 -4.4794,-5.4506 -4.4794,-9.5066 0,-1.0705 0.1408,-2.3106 0.4234,-3.7191 l 3.9718,-18.9301 c 1.127,-5.2961 3.7606,-9.4085 7.9019,-12.3386 4.1402,-2.9301 9.3658,-4.394 15.6759,-4.394 h 88.1443 l -3.042,14.4508 h -88.1443 c -1.803,0 -2.8735,0.7602 -3.2115,2.2818 l -3.9718,18.9301 c -0.1695,0.676 -0.2538,1.127 -0.2538,1.352 0,0.5641 0.8168,0.8455 2.4514,0.8455 h 88.1443 z"
     style="fill:#c00415;fill-rule:evenodd;stroke:#1b1918;stroke-width:3.0004;stroke-linecap:round;stroke-linejoin:miter;stroke-dasharray:none"
     id="path10" />
  <path
     d="M 666.3884,508.0733 H 73.2079 v -7.1613 h 593.95 v 7.1613 z M 74.7468,506.5343 H 665.6189 V 502.451 H 74.7468 Z"
     style="fill:#1b1918;fill-rule:evenodd"
     id="path12" />
  <path
     d="M 666.3884,601.7208 H 73.2079 v -7.1613 h 593.95 v 7.1613 z m -591.6416,-1.539 h 590.8721 v -4.0833 H 74.7468 Z"
     style="fill:#1b1918;fill-rule:evenodd"
     id="path14" />
  <path
     d="m 438.5967,432.4579 c 4.0094,0.2394 9.5898,0.5168 14.691,0.7701 10.8942,0.5406 9.8871,-0.0852 17.9543,2.4245 -5.5089,1.6646 -6.293,1.635 -12.829,1.9104 -2.8875,0.1218 -6.2833,0.2652 -9.8013,0.4452 -5.843,0.2993 -11.6511,0.1983 -14.2065,0.2629 3.3373,0.4188 11.7404,0.659 19.0628,0.8678 7.6118,0.2181 10.8744,0.0654 17.9005,2.2489 -6.9691,2.0796 -10.5534,1.9833 -17.9746,2.2791 -4.7807,0.1907 -10.0218,0.3998 -13.9911,0.6014 8.4365,0.5877 22.5983,0.8643 27.8981,0.9675 l 1.7195,0.0352 1.8261,0.0439 -0.3531,1.7836 c -0.2885,1.4584 -3.4586,2.3189 -7.5405,2.8107 -6.1362,0.7395 -14.9106,1.131 -16.6488,1.1641 -1.4904,0.0285 -3.4348,0.1297 -5.5941,0.2417 -5.941,0.3082 -13.5097,0.7005 -19.8442,-0.0515 -6.0693,-0.7206 -7.738,-2.6618 -9.3648,-4.5547 -1.0342,-1.2034 -2.0471,-2.3818 -5.0939,-2.9646 -3.4017,-0.6508 -8.5354,-0.7552 -13.7221,-0.629 -5.1855,0.1262 -10.519,0.4944 -14.2103,0.7756 -9.0457,0.6889 -22.7948,1.0437 -35.9824,1.3837 -10.209,0.2632 -20.0798,0.5179 -27.235,0.9216 -4.9621,0.2797 -14.3106,0.6476 -22.8879,0.6892 -5.9076,0.0285 -11.4278,-0.0977 -14.8722,-0.513 -2.3727,-0.2859 -4.3133,-1.0603 -5.6816,-2.4391 -1.407,-1.418 -2.1465,-3.3888 -2.0581,-6.0163 0.0872,-2.6022 1.042,-4.3843 2.624,-5.5996 l 0.003,0.004 c 1.4742,-1.1316 3.4299,-1.6847 5.6869,-1.9174 7.0045,-0.7221 21.6793,-0.2696 31.6521,0.0375 2.2021,0.0678 4.1758,0.1289 5.7462,0.1675 8.5241,0.2097 20.952,0.6096 33.1923,1.063 11.3517,0.4202 22.5337,0.8855 30.3203,1.2877 1.318,0.068 2.6763,0.1533 4.1493,0.2454 7.4448,0.4662 17.792,1.1141 23.3279,-0.1151 4.065,-0.9027 4.706,-2.0264 5.3126,-3.0911 1.0696,-1.876 2.0735,-3.6369 9.1595,-4.4154 6.732,-0.7395 14.4819,-0.3752 21.5551,-0.0428 1.2796,0.0602 2.5333,0.1196 3.5994,0.1644 0.9073,0.038 10.3358,0.549 16.8503,1.3051 3.9603,0.4592 7.0857,1.1929 7.5315,2.3513 l 0.6951,1.8045 -1.9214,0.2634 c -1.4649,0.2007 -5.4932,0.2737 -10.428,0.363 -6.5559,0.1186 -14.7783,0.2678 -20.2168,0.6659 z m -7.004,0.0518 c 0.702,1.897 28.8915,2.2134 34.4681,3.1216 -2.9067,0.3891 -34.635,1.0277 -34.5411,2.8619 1.0554,2.501 29.6115,1.8563 34.6071,2.8616 -4.5448,0.8945 -33.7146,0.8788 -34.5254,2.8616 1.5204,2.0677 33.3148,2.4885 37.383,2.5874 -0.3496,1.7649 -20.0278,2.6851 -22.7044,2.7365 -5.8983,0.1134 -16.7431,1.2046 -25.2339,0.196 -10.116,-1.2013 -6.5591,-6.0105 -14.3505,-7.5012 -7.0281,-1.3447 -20.9846,-0.4374 -28.3352,0.1227 -16.1814,1.2328 -46.9612,1.3895 -63.1871,2.3053 -8.3661,0.472 -29.118,1.1926 -37.4958,0.182 -4.067,-0.4906 -6.5337,-2.5338 -6.3871,-6.8803 0.1404,-4.1732 2.9416,-5.622 6.937,-6.0341 8.4406,-0.8704 28.3404,-0.008 37.2062,0.2108 16.3149,0.4016 47.1467,1.5073 63.4704,2.3507 7.2552,0.3745 20.9697,1.6303 27.8861,0.0942 10.063,-2.2349 2.4044,-6.1687 14.3037,-7.4762 7.7845,-0.8553 17.03,-0.2068 24.932,0.1273 1.3709,0.0579 22.4488,1.2104 23.0112,2.6706 -4.4541,0.6098 -35.3714,0.006 -37.4443,2.6016 z"
     style="fill:#1b1918;fill-rule:evenodd"
     id="path16" />
  <path
     d="m 270.5779,475.3844 c -1.0533,-2.4103 -0.9231,-4.3349 0.0137,-6.1196 0.8445,-1.6097 2.3157,-2.9657 4.1359,-4.4646 4.3625,-3.5921 9.8158,-5.9271 15.5978,-7.4504 5.7029,-1.502 11.7265,-2.2174 17.3223,-2.5754 20.0342,-1.2813 28.4675,0.1567 45.1846,3.0079 1.9575,0.3335 4.0266,0.6869 5.6659,0.9614 l 2.4388,0.4109 c 9.4369,1.5949 11.7719,1.9898 22.7634,1.587 4.261,-0.1559 8.6404,-0.328 13.066,-0.5354 4.3212,-0.2024 8.6892,-0.4414 13.0349,-0.7366 4.0132,-0.2725 21.6444,-1.1124 35.8919,-1.4375 8.5776,-0.196 15.9331,-0.2007 18.3969,0.2239 2.41,0.4153 4.1604,1.6347 5.237,3.4409 1.0623,1.7827 1.4165,4.0956 1.051,6.7169 -0.4168,2.9876 -1.6024,4.7377 -3.4988,5.759 -1.7292,0.9315 -3.9411,1.1284 -6.664,1.0903 -11.714,-0.1634 -23.6054,-0.6017 -35.5116,-1.04 -15.3032,-0.5633 -30.6317,-1.1277 -45.4446,-1.1114 -4.4645,0.005 -8.8087,0.1093 -13.1639,0.326 -4.3265,0.2154 -8.6416,0.5426 -13.0741,0.9937 -8.1571,0.8302 -23.321,1.461 -38.6739,1.8152 -16.9957,0.3923 -34.2279,0.4458 -42.4347,0.0573 l -0.9521,-0.0453 z m 1.4067,-0.6134 c -1.6812,-3.8477 0.351,-6.0154 3.7168,-8.7866 8.342,-6.8684 21.0166,-8.9716 32.0425,-9.6771 21.9907,-1.4067 29.8977,0.497 50.5018,3.9513 11.6683,1.9563 13.46,2.4573 25.5087,2.0159 8.5846,-0.3144 17.5739,-0.6895 26.1488,-1.272 6.4326,-0.4371 47.599,-2.3228 53.9282,-1.2316 3.9519,0.6813 5.6479,3.9684 5.0256,8.4324 -0.6796,4.8732 -3.6596,5.5964 -8.6238,5.5269 -26.6257,-0.3722 -54.5328,-2.1808 -80.9742,-2.1514 -9.0271,0.01 -17.4729,0.4179 -26.3884,1.3255 -17.1371,1.7446 -65.3101,2.6042 -80.886,1.8667 z"
     style="fill:#1b1918;fill-rule:evenodd"
     id="path18" />
  <path
     d="m 431.5927,432.5096 c 0.7021,1.8971 31.1075,2.2134 36.6841,3.1218 -2.9066,0.3891 -36.851,1.0276 -36.7571,2.8617 1.0553,2.501 31.8278,1.8564 36.8232,2.8617 -4.5448,0.8945 -35.9307,0.8788 -36.7414,2.8617 1.5204,2.0675 33.3147,2.4885 37.3828,2.5873 -0.3493,1.7649 -20.0277,2.685 -22.7043,2.7364 -5.8984,0.1135 -16.743,1.2048 -25.2339,0.1963 -10.1159,-1.2015 -6.5592,-6.0107 -14.3505,-7.5013 -7.0281,-1.3448 -20.9847,-0.4376 -28.3352,0.1225 -16.1814,1.2329 -46.9612,1.3897 -63.1871,2.3053 -8.3663,0.4722 -29.118,1.1926 -37.4959,0.1822 -4.0669,-0.4906 -6.5336,-2.5339 -6.3871,-6.8805 0.1406,-4.173 2.9418,-5.622 6.9371,-6.034 8.4407,-0.8704 28.3404,-0.008 37.206,0.2107 16.3151,0.4018 47.1468,1.5074 63.4705,2.3507 7.2552,0.3748 20.9699,1.6303 27.8861,0.0943 10.0631,-2.235 2.4046,-6.1687 14.3038,-7.4761 7.7844,-0.8554 17.03,-0.2069 24.9321,0.1272 1.3708,0.058 22.4487,1.2104 23.011,2.6706 -4.4539,0.6097 -35.3714,0.006 -37.4442,2.6015 z"
     style="fill:#ffffff;fill-rule:evenodd"
     id="path20" />
  <path
     d="m 271.9844,474.771 c -1.6809,-3.8476 0.3513,-6.0155 3.717,-8.7866 8.3421,-6.8686 21.0167,-8.9716 32.0425,-9.677 21.9906,-1.4069 29.8976,0.4969 50.5018,3.9512 11.6684,1.9563 13.46,2.4574 25.5087,2.016 8.5846,-0.3146 17.574,-0.6897 26.1488,-1.2722 6.4326,-0.437 47.5989,-2.3227 53.9283,-1.2315 3.9519,0.6813 5.6478,3.9685 5.0254,8.4324 -0.6796,4.8731 -3.6596,5.5963 -8.6238,5.5269 -26.6256,-0.3722 -54.5326,-2.1807 -80.9741,-2.1515 -9.0272,0.01 -17.473,0.4178 -26.3883,1.3255 -17.1372,1.7447 -65.3103,2.6043 -80.8863,1.8668 z"
     style="fill:#ffffff;fill-rule:evenodd"
     id="path22" />
  <path
     d="M 665.6496,506.5652 H 74.7161 v -4.145 h 590.9335 z"
     style="fill:#ffffff;fill-rule:evenodd"
     id="path24" />
  <path
     d="M 665.6496,600.2128 H 74.7161 v -4.145 h 590.9335 z"
     style="fill:#ffffff;fill-rule:evenodd"
     id="path26" />
  <path
     d="m 547.4913,606.792 c -8.6375,14.181 -18.927,27.2452 -30.6044,38.922 -37.544,37.5452 -89.4127,60.7681 -146.7042,60.7681 -57.2905,0 -109.1595,-23.2229 -146.7041,-60.7681 -11.6774,-11.6768 -21.9669,-24.741 -30.6047,-38.922 h 19.1312 c 6.7512,9.8892 14.4052,19.1132 22.8437,27.5514 13.4161,13.4162 28.2683,24.3862 44.0362,32.9475 v -14.5238 h 14.0344 v 21.4088 c 4.6285,2.038 9.3188,3.8824 14.0591,5.5322 v -26.941 h 14.0343 v 31.2255 c 4.6548,1.2267 9.3445,2.2756 14.0591,3.1443 v -34.3698 h 14.0344 v 36.4195 c 4.6763,0.5083 9.366,0.8471 14.0591,1.0114 v -37.4309 h 14.0344 v 37.4111 c 4.6966,-0.1771 9.3866,-0.5217 14.0591,-1.0408 v -36.3703 h 14.0344 v 34.2869 c 4.7184,-0.8788 9.409,-1.9295 14.0591,-3.1611 v -31.1258 h 14.0343 v 26.8302 c 4.745,-1.6539 9.4367,-3.4915 14.0591,-5.5243 v -21.3059 h 14.0344 v 14.4241 c 15.8683,-8.593 30.7344,-19.5456 44.0362,-32.8478 8.4388,-8.4382 16.0928,-17.6622 22.844,-27.5514 z"
     style="fill:#ffffff;fill-rule:evenodd;stroke:#1b1918;stroke-width:2.0723;stroke-linecap:butt;stroke-linejoin:miter;stroke-dasharray:none"
     id="path28" />
  <g
     id="Layer1000">
    <path
       d="m 304.3239,615.1756 -10.0665,13.2746 10.1139,12.7195 v -26.0566 z m -12.9737,12.4469 9.0119,-11.8831 h -4.7678 l -8.7746,11.5687 -2.5367,-0.8509 v -10.7178 h -3.7493 v 24.5185 h 3.7493 v -9.7298 l 2.5311,-0.8621 2.1902,2.819 6.1826,7.7729 h 4.8512 l -9.3504,-11.7604 z m 14.5464,15.4648 h -12.0659 c -2.244,-2.8118 -4.4863,-5.6252 -6.7183,-8.4466 v 8.4466 h -9.4081 V 612.91 h 9.4081 v 9.352 l 7.0936,-9.352 h 19.5734 v 30.1773 z m 5.0534,-27.3479 h -3.7493 v 24.5185 h 3.7493 z m 4.1511,4.5136 v -7.343 h 26.7552 v 8.7577 h -8.7321 v 21.4196 h -9.291 v -21.4196 h -8.7321 z m 2.8294,-4.5136 v 3.0989 h 8.7321 v 21.4196 h 3.6322 v -21.4196 h 8.7321 v -3.0989 z m 34.5329,5.9283 c -0.4844,0 -0.8333,0.0834 -1.045,0.2495 -0.0337,0.0264 -0.0642,0.0721 -0.0866,0.1307 -0.0513,0.1331 -0.077,0.328 -0.077,0.583 v 10.7363 c 0,0.3881 0.0553,0.6287 0.1636,0.7137 0.0938,0.0738 0.2125,0.1324 0.3505,0.1717 0.1772,0.0521 0.4098,0.0778 0.6945,0.0778 h 7.0487 c 0.4748,0 0.8357,-0.0915 1.0787,-0.2719 0.0288,-0.0217 0.0545,-0.0586 0.0729,-0.1067 0.0482,-0.1251 0.0698,-0.3047 0.0626,-0.5341 l -0.0465,-1.4588 h 9.449 v 1.4147 c 0,0.6103 -0.0321,1.227 -0.0946,1.8486 -0.0602,0.5983 -0.154,1.1773 -0.2767,1.7355 -0.1299,0.5838 -0.3088,1.1404 -0.5341,1.6625 -0.231,0.5357 -0.5093,1.0306 -0.8285,1.4797 -0.6753,0.9479 -1.5607,1.6866 -2.6506,2.2119 -0.5469,0.2638 -1.1508,0.4619 -1.806,0.5894 -0.6304,0.1235 -1.3113,0.1861 -2.0379,0.1861 h -11.786 c -0.7355,0 -1.4244,-0.0626 -2.062,-0.1853 -0.6632,-0.1275 -1.2727,-0.3256 -1.8221,-0.5902 -0.5445,-0.2631 -1.0369,-0.5783 -1.4724,-0.944 -0.4467,-0.3745 -0.8389,-0.8036 -1.1693,-1.2792 -0.304,-0.4378 -0.5751,-0.9295 -0.8076,-1.4684 -0.2294,-0.5301 -0.4107,-1.0811 -0.5438,-1.6457 -0.1275,-0.5461 -0.2253,-1.1276 -0.2911,-1.7411 -0.0658,-0.6167 -0.0995,-1.2383 -0.0995,-1.8598 v -10.7098 c 0,-0.6215 0.0337,-1.2447 0.0995,-1.8646 0.0642,-0.6079 0.1628,-1.1934 0.2911,-1.7508 0.1356,-0.5878 0.3168,-1.1428 0.5382,-1.6601 0.2301,-0.5365 0.502,-1.0329 0.8132,-1.4796 0.3312,-0.4764 0.7218,-0.9039 1.1693,-1.2792 0.4306,-0.3609 0.9223,-0.6761 1.4732,-0.9408 0.5486,-0.267 1.1581,-0.4651 1.8213,-0.5934 0.6376,-0.1227 1.3265,-0.1853 2.062,-0.1853 h 11.786 c 1.4893,0 2.7725,0.2599 3.8439,0.7763 0.5382,0.2623 1.0306,0.5767 1.4693,0.9416 0.4467,0.3649 0.8405,0.7915 1.1813,1.2695 0.3256,0.458 0.6047,0.956 0.8341,1.4909 0.2262,0.5277 0.405,1.0883 0.5341,1.677 0.1171,0.5373 0.2085,1.1204 0.2711,1.7451 0.0625,0.6248 0.0946,1.2431 0.0946,1.8534 v 1.4147 h -9.4482 l 0.0457,-1.4588 c 0.007,-0.2342 -0.0152,-0.4226 -0.0666,-0.5606 -0.0224,-0.0545 -0.0497,-0.0962 -0.0802,-0.1187 -0.1139,-0.0866 -0.247,-0.1524 -0.3929,-0.1949 -0.1781,-0.0513 -0.4042,-0.0778 -0.6745,-0.0778 z m -2.7917,-1.9721 c 0.7274,-0.571 1.6585,-0.8573 2.7917,-0.8573 h 7.0487 c 0.5125,0 0.9993,0.0666 1.4588,0.1997 0.4924,0.1428 0.9311,0.3601 1.3105,0.6472 0.4643,0.3513 0.8043,0.81 1.0185,1.369 l 0.0657,0.1949 h 3.8769 l -0.0153,-0.1628 c -0.0473,-0.4724 -0.1243,-0.9488 -0.2277,-1.4243 -0.0931,-0.4259 -0.2166,-0.8165 -0.3674,-1.1685 -0.1483,-0.3465 -0.3288,-0.6689 -0.5357,-0.96 -0.1933,-0.2703 -0.421,-0.5157 -0.6817,-0.7322 -0.2622,-0.2238 -0.5622,-0.4139 -0.8918,-0.5727 -0.6809,-0.3256 -1.5542,-0.4892 -2.6225,-0.4892 h -11.786 c -0.5703,0 -1.0819,0.0441 -1.531,0.1308 -0.4259,0.0826 -0.8028,0.2029 -1.126,0.3584 -0.3256,0.1532 -0.62,0.3441 -0.887,0.5679 -0.2495,0.2085 -0.4708,0.4523 -0.6609,0.7258 -0.2101,0.3023 -0.3905,0.6279 -0.5373,0.9712 -0.1556,0.3633 -0.2847,0.7595 -0.3826,1.1853 -0.105,0.4555 -0.1844,0.9295 -0.2365,1.4187 -0.0506,0.4796 -0.077,1.0033 -0.077,1.5663 v 10.7098 c 0,0.563 0.0264,1.0843 0.077,1.5615 0.0505,0.4771 0.1307,0.9447 0.2365,1.3978 0.1019,0.4347 0.2286,0.8277 0.377,1.1709 0.1443,0.3345 0.3264,0.6593 0.5429,0.9712 0.1893,0.2727 0.4114,0.5173 0.6609,0.7258 0.2622,0.2206 0.5598,0.4107 0.887,0.5687 0.3232,0.1555 0.7001,0.2758 1.126,0.3576 0.4491,0.0867 0.9607,0.1308 1.531,0.1308 h 11.786 c 0.5518,0 1.0514,-0.0441 1.4957,-0.1308 0.4243,-0.081 0.7972,-0.2013 1.1212,-0.3576 0.6584,-0.3176 1.1861,-0.7539 1.5791,-1.3057 0.2133,-0.2999 0.3954,-0.6215 0.5414,-0.96 0.1515,-0.3512 0.275,-0.7386 0.3673,-1.154 0.097,-0.4411 0.1724,-0.9111 0.2221,-1.4035 l 0.0145,-0.158 h -3.8841 l -0.0633,0.1804 c -0.2166,0.5574 -0.5598,1.0106 -1.0242,1.3562 -0.7474,0.5558 -1.6681,0.8349 -2.758,0.8349 h -7.0487 c -0.5221,0 -1.0137,-0.0674 -1.4733,-0.1997 -0.5044,-0.1436 -0.9439,-0.3641 -1.3184,-0.6576 -0.8301,-0.6513 -1.2463,-1.6377 -1.2463,-2.9353 v -10.7363 c 0,-0.5894 0.0922,-1.1236 0.2759,-1.5999 0.2117,-0.547 0.5357,-0.9937 0.9704,-1.3354 z m 42.4982,-6.7856 h 7.9934 v 30.1773 h -9.4081 v -10.7098 h -9.4274 v 10.7098 h -9.4073 V 612.91 h 9.4073 v 10.7098 h 9.4274 V 612.91 Z m 5.164,2.8294 h -3.7493 v 10.7098 h -15.0862 v -10.7098 h -3.7485 v 24.5185 h 3.7485 v -10.7098 h 15.0862 v 10.7098 h 3.7493 z m 9.3248,-2.8294 h 24.362 v 8.7577 h -16.3686 v 1.9521 h 13.8231 v 8.7577 h -13.8231 v 1.9529 h 16.3686 v 8.7569 H 405.244 V 612.91 Z m 21.5326,2.8294 h -20.1179 v 24.5185 h 20.1179 v -3.0981 h -16.3686 v -7.6117 h 13.8231 v -3.0989 h -13.8231 v -7.6109 h 16.3686 z m 26.4761,-2.8294 h 7.9934 v 30.1773 h -8.6751 l -10.9432,-13.9627 v 13.9627 h -9.4081 V 612.91 h 8.6791 l 10.9392,13.925 V 612.91 Z m 5.164,2.8294 h -3.7493 v 15.1841 l -2.5255,0.8734 -12.6145,-16.0575 h -4.4783 v 24.5185 h 3.7493 v -15.2234 l 2.5255,-0.8678 12.6113,16.0912 h 4.4815 z"
       style="fill:#1b1918;fill-rule:evenodd"
       id="path30" />
    <path
       d="m 303.2016,614.325 -10.7296,14.1482 10.4947,13.1996 h -8.4584 c -1.4881,-1.8707 -2.963,-3.7214 -4.4249,-5.5527 -1.462,-1.831 -2.9239,-3.695 -4.3856,-5.5918 v 11.1445 h -6.5787 V 614.325 h 6.5787 v 12.1325 L 294.9,614.325 Z m 2.5845,0 h 6.5787 v 27.3478 h -6.5787 z m 10.7296,5.9279 v -5.9279 h 23.9261 v 5.9279 h -8.7324 v 21.4199 h -6.4613 v -21.4199 z m 35.9477,0 c -0.8093,0 -1.4488,0.1846 -1.9186,0.5532 -0.4701,0.3689 -0.705,0.9815 -0.705,1.8246 v 10.7364 c 0,0.8431 0.2349,1.4556 0.705,1.8243 0.4698,0.3689 1.1093,0.5535 1.9186,0.5535 h 7.0487 c 0.7831,0 1.4226,-0.1846 1.9186,-0.5535 0.4962,-0.3687 0.7311,-0.9747 0.705,-1.8177 h 6.5784 c 0,1.1856 -0.111,2.2788 -0.333,3.2801 -0.2217,1.001 -0.6002,1.8773 -1.1355,2.6282 -0.5352,0.7506 -1.2399,1.337 -2.1146,1.7585 -0.8745,0.4216 -1.9512,0.6323 -3.2303,0.6323 H 350.114 c -1.3054,0 -2.3953,-0.2107 -3.2698,-0.6323 -0.8746,-0.4215 -1.5729,-1.0079 -2.095,-1.7585 -0.522,-0.7509 -0.9008,-1.6272 -1.1357,-2.6282 -0.2349,-1.0013 -0.3523,-2.0945 -0.3523,-3.2801 v -10.7102 c 0,-1.1853 0.1174,-2.2853 0.3523,-3.2997 0.2349,-1.0143 0.6137,-1.8971 1.1357,-2.648 0.5221,-0.7509 1.2204,-1.3371 2.095,-1.7585 0.8745,-0.4216 1.9644,-0.6323 3.2698,-0.6323 h 11.7867 c 1.2791,0 2.3558,0.2107 3.2303,0.6323 0.8747,0.4214 1.5794,1.0076 2.1146,1.7585 0.5353,0.7509 0.9138,1.6337 1.1355,2.648 0.222,1.0144 0.333,2.1144 0.333,3.2997 h -6.5784 c 0.0261,-0.8561 -0.2088,-1.4751 -0.705,-1.8506 -0.496,-0.3754 -1.1355,-0.56 -1.9186,-0.56 z m 39.7069,-5.9279 h 6.5786 v 27.3478 h -6.5786 V 630.963 h -12.2568 v 10.7098 h -6.5787 V 614.325 h 6.5787 v 10.7098 h 12.2568 z m 14.4886,0 h 22.9471 v 5.9279 h -16.3684 v 4.7819 h 13.823 v 5.9282 h -13.823 v 4.7819 h 16.3684 v 5.9279 h -22.9471 z m 48.0086,0 h 6.5786 v 27.3478 h -6.5786 l -13.0399,-16.638 v 16.638 h -6.5787 V 614.325 h 6.5787 l 13.0399,16.5983 z"
       style="fill:#ffcb00;fill-rule:evenodd"
       id="path32" />
  </g>
</svg>
